<?xml version="1.0" standalone="no"?>
<!DOCTYPE svg PUBLIC "-//W3C//DTD SVG 20010904//EN"
 "http://www.w3.org/TR/2001/REC-SVG-20010904/DTD/svg10.dtd">
<svg version="1.0" xmlns="http://www.w3.org/2000/svg"
 width="199.000000pt" height="133.000000pt" viewBox="0 0 199.000000 133.000000"
 preserveAspectRatio="xMidYMid meet">

<g transform="translate(0.000000,133.000000) scale(0.100000,-0.100000)"
fill="#000000" stroke="none">
<path d="M728 1033 c-25 -4 -28 -9 -28 -42 0 -25 7 -44 20 -56 11 -10 20 -21
20 -25 0 -4 -39 -25 -87 -48 -130 -61 -165 -60 -257 3 -37 25 -70 45 -74 45
-18 0 -52 -79 -62 -145 -15 -89 -30 -219 -36 -316 l-5 -75 38 -17 c21 -9 74
-21 118 -27 94 -12 625 -12 840 1 252 15 466 64 525 119 39 36 39 70 0 142
l-30 55 -104 17 c-125 20 -191 41 -229 73 -37 30 -48 29 -69 -7 -9 -17 -25
-30 -34 -30 -13 0 -14 -3 -5 -13 30 -37 -37 -36 -74 0 l-27 28 28 12 c43 18
64 16 58 -4 -5 -16 -4 -16 10 1 8 10 13 23 10 27 -3 5 1 9 8 9 7 0 2 6 -12 13
-19 10 -27 10 -35 1 -5 -6 -22 -19 -37 -29 -23 -14 -28 -15 -28 -3 0 18 31 48
51 49 8 0 1 5 -16 11 -16 6 -39 18 -50 27 -11 9 -17 12 -12 7 7 -10 -50 -76
-65 -76 -16 0 -7 22 21 51 l29 29 -27 13 c-25 12 -28 11 -45 -11 -10 -13 -33
-30 -50 -38 -31 -14 -31 -14 17 -8 48 6 48 6 41 -20 -4 -17 -2 -26 6 -26 6 0
8 -5 5 -11 -8 -11 -49 -4 -102 17 l-33 14 17 28 c18 28 28 36 73 62 l27 16
-26 19 c-18 13 -22 14 -13 3 11 -14 9 -19 -14 -37 -15 -12 -41 -21 -60 -21
-39 0 -44 12 -11 27 22 10 21 11 -18 47 -22 21 -52 40 -66 43 -14 3 -39 15
-55 28 l-28 22 38 5 c33 4 45 -1 78 -29 22 -18 44 -33 48 -33 5 0 22 -12 39
-26 17 -14 29 -19 26 -12 -3 8 -23 25 -43 37 -20 12 -56 38 -80 56 -44 35 -67
40 -144 28z m132 -110 c-1 -26 -315 -197 -360 -196 -14 0 -52 12 -85 27 -52
24 -58 29 -41 38 13 7 35 7 76 -2 33 -7 75 -9 96 -5 50 9 151 55 208 94 60 42
106 60 106 44z m54 -32 c15 -16 15 -19 1 -24 -9 -4 -15 -19 -15 -36 0 -22 -4
-29 -14 -25 -14 6 -30 -22 -20 -37 3 -5 13 -9 22 -9 14 -1 13 -4 -7 -20 -15
-13 -31 -18 -47 -14 -21 5 -27 0 -44 -39 -25 -56 -36 -64 -49 -38 -9 15 -19
19 -47 16 -42 -4 -84 12 -84 32 0 7 -4 13 -10 13 -5 0 -10 9 -10 20 0 21 16
26 39 11 10 -7 11 -13 1 -32 l-11 -24 19 24 19 24 52 -18 c28 -9 57 -15 64
-12 7 3 21 32 31 65 13 42 23 59 32 55 8 -3 14 0 14 6 0 6 -4 11 -10 11 -17 0
-11 29 10 50 25 25 42 25 64 1z m-582 -66 c-10 -21 -9 -25 6 -26 14 0 14 -2
-3 -9 -34 -15 -51 -11 -51 10 0 11 4 20 9 20 5 0 7 7 3 15 -3 8 -1 15 4 15 6
0 10 8 10 17 0 16 1 16 17 1 14 -14 15 -22 5 -43z m778 11 c0 -3 -4 -8 -10
-11 -5 -3 -10 -1 -10 4 0 6 5 11 10 11 6 0 10 -2 10 -4z m-30 -16 c0 -5 -4
-10 -10 -10 -5 0 -10 5 -10 10 0 6 5 10 10 10 6 0 10 -4 10 -10z m-703 -6 c-3
-3 -12 -4 -19 -1 -8 3 -5 6 6 6 11 1 17 -2 13 -5z m780 -18 c-3 -8 -1 -16 5
-18 7 -3 7 -10 -2 -24 -11 -17 -17 -19 -36 -10 l-23 11 26 27 c30 31 38 35 30
14z m43 0 c0 -3 -4 -8 -10 -11 -5 -3 -10 -1 -10 4 0 6 5 11 10 11 6 0 10 -2
10 -4z m-240 -51 c16 -8 62 -22 102 -30 63 -14 148 -54 148 -70 0 -26 -37 -79
-84 -123 -57 -52 -58 -52 -124 -52 -87 0 -352 22 -352 29 1 3 13 21 29 38 l27
33 86 -29 c145 -49 189 -56 226 -37 58 30 66 75 27 141 -23 40 -63 75 -85 75
-5 0 -10 -18 -10 -39 0 -23 -7 -46 -16 -55 -18 -18 -89 -21 -129 -6 l-27 10
49 39 c26 21 59 50 72 65 29 31 25 30 61 11z m-625 -22 c30 -15 55 -30 55 -34
0 -7 -17 -12 -92 -25 -35 -6 -38 -4 -38 17 0 26 10 69 16 69 2 0 28 -12 59
-27z m1045 -4 c8 -14 6 -21 -10 -29 -18 -10 -20 -8 -20 20 0 21 -4 29 -12 24
-7 -4 -8 -3 -4 4 9 15 34 4 46 -19z m-815 1 c3 -6 -4 -10 -17 -10 -18 0 -20 2
-8 10 19 12 18 12 25 0z m775 -9 c0 -12 -20 -25 -27 -18 -7 7 6 27 18 27 5 0
9 -4 9 -9z m268 -61 c45 -7 82 -16 82 -20 0 -8 -59 -22 -150 -35 -25 -4 -72
-18 -106 -31 -33 -13 -64 -24 -67 -24 -14 0 -6 29 18 71 14 24 25 54 25 65 l0
22 58 -18 c32 -10 95 -24 140 -30z m-217 6 c-11 -28 -30 -33 -49 -14 -16 16
-15 31 2 25 8 -3 22 0 33 8 23 17 26 14 14 -19z m-940 -16 c4 -14 7 -49 8 -77
l1 -53 -54 0 c-61 0 -73 9 -55 42 l12 22 19 -27 c21 -29 41 -37 32 -12 -4 8
-2 15 4 15 15 0 -13 52 -43 80 -24 22 -24 25 -8 32 10 4 31 6 48 5 22 -1 31
-8 36 -27z m-111 -19 c0 -15 -9 -40 -21 -55 -13 -17 -16 -26 -8 -26 9 0 10 -3
3 -10 -13 -13 -64 4 -64 20 0 14 17 13 23 -2 4 -8 6 -9 6 -2 1 6 -6 17 -14 24
-21 18 -19 27 10 34 16 4 25 13 25 26 0 13 7 20 20 20 15 0 20 -7 20 -29z
m936 -1 c19 0 24 -53 7 -72 -14 -16 -14 -18 1 -24 27 -10 100 2 148 24 71 33
94 35 105 10 6 -14 6 -29 -1 -44 -9 -20 -22 -24 -85 -30 -63 -6 -76 -4 -86 10
-16 21 -22 20 -28 -4 -7 -27 -23 -25 -31 3 -4 16 -8 19 -15 9 -8 -13 -68 -31
-104 -32 -16 0 -18 5 -12 43 11 63 45 119 70 112 11 -2 25 -5 31 -5z m448 -16
c9 -23 7 -36 -4 -29 -6 3 -13 -1 -16 -10 -5 -13 -15 -15 -53 -9 -25 3 -52 12
-60 19 -11 11 -4 14 36 20 27 3 55 10 63 16 21 12 27 11 34 -7z m-394 -4 c0
-5 -7 -7 -15 -4 -8 4 -15 8 -15 10 0 2 7 4 15 4 8 0 15 -4 15 -10z m410 -75
c-11 -13 -10 -14 4 -9 12 4 16 1 16 -14 0 -12 -4 -23 -9 -27 -5 -3 -64 -16
-130 -30 -66 -13 -140 -34 -163 -46 -40 -21 -63 -23 -328 -31 -324 -10 -770 3
-839 24 -55 17 -66 33 -57 90 l7 46 43 -13 c23 -7 119 -18 212 -24 93 -7 221
-16 284 -21 233 -19 444 -23 580 -11 219 20 356 50 375 82 4 5 9 8 12 5 3 -3
0 -12 -7 -21z m-145 -4 c3 -6 -4 -15 -15 -21 -16 -8 -20 -8 -20 3 0 25 23 36
35 18z"/>
<path d="M875 870 c-3 -5 -1 -10 4 -10 6 0 11 5 11 10 0 6 -2 10 -4 10 -3 0
-8 -4 -11 -10z"/>
<path d="M528 453 c7 -3 16 -2 19 1 4 3 -2 6 -13 5 -11 0 -14 -3 -6 -6z"/>
<path d="M738 443 c7 -3 16 -2 19 1 4 3 -2 6 -13 5 -11 0 -14 -3 -6 -6z"/>
<path d="M918 433 c7 -3 16 -2 19 1 4 3 -2 6 -13 5 -11 0 -14 -3 -6 -6z"/>
</g>
</svg>
