<?xml version="1.0" encoding="UTF-8"?>
<svg xmlns="http://www.w3.org/2000/svg" xmlns:xlink="http://www.w3.org/1999/xlink" width="32px" height="32px" viewBox="0 0 32 32" version="1.1">
<g id="surface1">
<path style=" stroke:none;fill-rule:nonzero;fill:rgb(100%,100%,100%);fill-opacity:1;" d="M 6.398438 0 L 25.601562 0 C 29.132812 0 32 2.867188 32 6.398438 L 32 25.601562 C 32 29.132812 29.132812 32 25.601562 32 L 6.398438 32 C 2.867188 32 0 29.132812 0 25.601562 L 0 6.398438 C 0 2.867188 2.867188 0 6.398438 0 Z M 6.398438 0 "/>
<path style="fill:none;stroke-width:0.6;stroke-linecap:round;stroke-linejoin:round;stroke:rgb(58.039216%,56.078431%,56.078431%);stroke-opacity:1;stroke-miterlimit:4;" d="M 12 6.003398 C 10.198418 3.902637 7.193613 3.252246 4.936758 5.177402 C 2.686406 7.096055 2.367715 10.308984 4.136777 12.578848 C 5.60666 14.46498 10.061836 18.445371 11.525215 19.739648 C 11.687812 19.882734 11.772363 19.954277 11.863418 19.980293 C 11.947969 20.006309 12.039023 20.006309 12.123574 19.980293 C 12.214629 19.954277 12.29918 19.882734 12.461777 19.739648 C 13.925156 18.445371 18.380332 14.46498 19.850215 12.578848 C 21.619277 10.308984 21.339609 7.076543 19.050234 5.177402 C 16.754355 3.278262 13.801582 3.902637 12 6.003398 Z M 12 6.003398 " transform="matrix(0.600601,0,0,0.600601,8.792793,8.792793)"/>
</g>
</svg>
